Coordinates
version=1
nRows=13
nColumns=40
inDegrees=yes

Units are S.I. units (second, meters, Newtons, ...)
If the header above contains a line with 'inDegrees', this indicates whether rotational values are in degrees (yes) or radians (no).

endheader
time	pelvis_tilt	pelvis_list	pelvis_rotation	pelvis_tx	pelvis_ty	pelvis_tz	hip_flexion_r	hip_adduction_r	hip_rotation_r	knee_angle_r	knee_angle_r_beta	ankle_angle_r	subtalar_angle_r	mtp_angle_r	hip_flexion_l	hip_adduction_l	hip_rotation_l	knee_angle_l	knee_angle_l_beta	ankle_angle_l	subtalar_angle_l	mtp_angle_l	lumbar_extension	lumbar_bending	lumbar_rotation	arm_flex_r	arm_add_r	arm_rot_r	elbow_flex_r	pro_sup_r	wrist_flex_r	wrist_dev_r	arm_flex_l	arm_add_l	arm_rot_l	elbow_flex_l	pro_sup_l	wrist_flex_l	wrist_dev_l
      1.80500000	    -14.71096237	     -3.38803252	     -2.71695760	      0.15773459	      0.55671437	     -1.20598455	     78.51210899	    -44.01182681	     -6.28311253	    106.17934239	      1.85317912	     28.76309610	      6.43386870	      0.00000000	     89.89373256	    -49.18245386	      7.05623099	    106.40080511	      1.85704438	     26.74937250	     14.92024057	      0.00000000	    -14.52719704	      2.64792422	      0.70233621	     44.99992434	    -14.99999999	     44.99992434	     75.00017585	     45.00000026	      0.00000000	      0.00000000	     44.99992434	    -14.99999999	     44.99992434	     75.00017585	     45.00000026	      0.00000000	      0.00000000
      1.81000000	    -14.61373055	     -3.26076222	     -2.69521822	      0.15780727	      0.56213543	     -1.20590674	     77.64900541	    -43.91773390	     -6.85378564	    105.27217266	      1.83734602	     28.56623092	      6.42439629	      0.00000000	     88.54418472	    -49.17099179	      5.86136728	    105.54331987	      1.84207844	     26.56037964	     14.86736656	      0.00000000	    -14.61705531	      2.52999372	      0.70417714	     44.99992434	    -14.99999999	     44.99992434	     75.00017585	     45.00000026	      0.00000000	      0.00000000	     44.99992434	    -14.99999999	     44.99992434	     75.00017585	     45.00000026	      0.00000000	      0.00000000
      1.81500000	    -15.13031003	     -3.27023444	     -2.72738589	      0.15799833	      0.56575066	     -1.20565658	     77.45915548	    -43.74577784	     -7.48095487	    104.59021356	      1.82544359	     28.40937257	      6.50641100	      0.00000000	     88.34940056	    -49.18027497	      5.20192988	    104.79724644	      1.82905700	     26.37684385	     14.93952161	      0.00000000	    -13.84969845	      2.54775059	      0.70411781	     44.99992434	    -14.99999999	     44.99992434	     75.00017585	     45.00000026	      0.00000000	      0.00000000	     44.99992434	    -14.99999999	     44.99992434	     75.00017585	     45.00000026	      0.00000000	      0.00000000
      1.82000000	    -14.74730197	     -3.14407628	     -2.69616948	      0.15820104	      0.57216020	     -1.20551006	     76.18910470	    -43.64493030	     -8.18005691	    103.60927020	      1.80832290	     28.00346452	      6.13069019	      0.00000000	     86.51705583	    -49.19813196	      3.79645725	    103.77847013	      1.81127600	     26.04759123	     14.62062497	      0.00000000	    -14.29852865	      2.40882811	      0.72601543	     44.99992434	    -14.99999999	     44.99992434	     75.00017585	     45.00000026	      0.00000000	      0.00000000	     44.99992434	    -14.99999999	     44.99992434	     75.00017585	     45.00000026	      0.00000000	      0.00000000
      1.82500000	    -15.23640637	     -3.14647972	     -2.73269826	      0.15833178	      0.57573742	     -1.20529131	     76.00269254	    -43.44258096	     -8.74709112	    102.89306804	      1.79582281	     27.86028293	      6.23050460	      0.00000000	     86.30315647	    -49.17381456	      3.17805842	    103.06419773	      1.79880959	     25.85924160	     14.70980578	      0.00000000	    -13.56030153	      2.42576638	      0.72540821	     44.99992434	    -14.99999999	     44.99992434	     75.00017585	     45.00000026	      0.00000000	      0.00000000	     44.99992434	    -14.99999999	     44.99992434	     75.00017585	     45.00000026	      0.00000000	      0.00000000
      1.83000000	    -14.71384807	     -2.96035531	     -2.72389790	      0.15862172	      0.58250851	     -1.20503916	     74.62869788	    -43.33220767	     -9.36149496	    101.87458980	      1.77804702	     27.47925134	      5.94672672	      0.00000000	     84.15613678	    -49.20226566	      1.61012594	    101.97052398	      1.77972138	     25.55284031	     14.47770396	      0.00000000	    -14.16085135	      2.21829744	      0.77271125	     44.99992434	    -14.99999999	     44.99992434	     75.00017585	     45.00000026	      0.00000000	      0.00000000	     44.99992434	    -14.99999999	     44.99992434	     75.00017585	     45.00000026	      0.00000000	      0.00000000
      1.83500000	    -15.19576763	     -2.96230201	     -2.76208729	      0.15891877	      0.58594087	     -1.20480230	     74.44967145	    -43.13460823	     -9.90059054	    101.19382850	      1.76616549	     27.35410492	      6.03286156	      0.00000000	     83.95617519	    -49.17735257	      1.03066190	    101.30049455	      1.76802716	     25.38585664	     14.55575520	      0.00000000	    -13.36903711	      2.23379756	      0.77524788	     44.99992434	    -14.99999999	     44.99992434	     75.00017585	     45.00000026	      0.00000000	      0.00000000	     44.99992434	    -14.99999999	     44.99992434	     75.00017585	     45.00000026	      0.00000000	      0.00000000
      1.84000000	    -14.75740978	     -2.80225692	     -2.78143609	      0.15914078	      0.59258191	     -1.20453129	     73.17242240	    -42.95118927	    -10.51119674	    100.12691007	      1.74754425	     26.86524552	      5.59356239	      0.00000000	     81.97374140	    -49.19262254	     -0.47679347	    100.18411175	      1.74854261	     24.91097295	     14.22166975	      0.00000000	    -13.87667224	      2.03157714	      0.83799578	     44.99992434	    -14.99999999	     44.99992434	     75.00017585	     45.00000026	      0.00000000	      0.00000000	     44.99992434	    -14.99999999	     44.99992434	     75.00017585	     45.00000026	      0.00000000	      0.00000000
      1.84500000	    -14.51113039	     -2.51412316	     -2.84628450	      0.15955301	      0.59837091	     -1.20403730	     72.33086017	    -42.80100729	    -10.80129018	     99.21586216	      1.73164346	     26.68161656	      5.66812411	      0.00000000	     80.10677470	    -49.20514552	     -2.06036995	     99.15486699	      1.73057890	     24.78920827	     14.31350096	      0.00000000	    -14.05644130	      1.69164597	      0.94397941	     44.99992434	    -14.99999999	     44.99992434	     75.00017585	     45.00000026	      0.00000000	      0.00000000	     44.99992434	    -14.99999999	     44.99992434	     75.00017585	     45.00000026	      0.00000000	      0.00000000
      1.85000000	    -15.00080121	     -2.52365148	     -2.88883332	      0.15981286	      0.60184294	     -1.20384798	     72.17523456	    -42.56602799	    -11.31491103	     98.50322269	      1.71920556	     26.54180895	      5.74023979	      0.00000000	     79.91713065	    -49.15817763	     -2.64220695	     98.44681229	      1.71822101	     24.61741197	     14.37625961	      0.00000000	    -13.26375148	      1.72072223	      0.93759404	     44.99992434	    -14.99999999	     44.99992434	     75.00017585	     45.00000026	      0.00000000	      0.00000000	     44.99992434	    -14.99999999	     44.99992434	     75.00017585	     45.00000026	      0.00000000	      0.00000000
      1.85500000	    -14.41299547	     -1.67265174	     -3.15004495	      0.16026432	      0.60874706	     -1.20259835	     71.63585745	    -42.37539513	    -10.70887995	     97.54972838	      1.70256394	     26.10755727	      5.52633886	      0.00000000	     76.61538137	    -49.22091241	     -5.53474525	     97.15271906	      1.69563482	     24.33358141	     14.26732751	      0.00000000	    -13.84365918	      0.70262017	      1.21776282	     44.99992434	    -14.99999999	     44.99992434	     75.00017585	     45.00000026	      0.00000000	      0.00000000	     44.99992434	    -14.99999999	     44.99992434	     75.00017585	     45.00000026	      0.00000000	      0.00000000
      1.86000000	    -14.33573608	     -1.63555321	     -3.21147751	      0.16068379	      0.61400678	     -1.20231254	     70.73699922	    -42.11874642	    -11.30831498	     96.62007126	      1.68633837	     25.83845397	      5.40498097	      0.00000000	     75.41473998	    -49.19553747	     -6.53243863	     96.20753228	      1.67913820	     24.05255202	     14.24153107	      0.00000000	    -13.78740038	      0.65435560	      1.29682730	     44.99992434	    -14.99999999	     44.99992434	     75.00017585	     45.00000026	      0.00000000	      0.00000000	     44.99992434	    -14.99999999	     44.99992434	     75.00017585	     45.00000026	      0.00000000	      0.00000000
      1.86500000	    -14.32661509	     -1.59221898	     -3.29687388	      0.16102011	      0.61904463	     -1.20198076	     69.98141705	    -41.81571454	    -11.84525088	     95.70872996	      1.67043246	     25.50982677	      5.13500118	      0.00000000	     74.32362479	    -49.15948278	     -7.49491583	     95.27758299	      1.66290753	     23.77211833	     14.12096015	      0.00000000	    -13.64047117	      0.58485966	      1.36310824	     44.99992434	    -14.99999999	     44.99992434	     75.00017585	     45.00000026	      0.00000000	      0.00000000	     44.99992434	    -14.99999999	     44.99992434	     75.00017585	     45.00000026	      0.00000000	      0.00000000
